<svg width="136" height="140" viewBox="0 0 136 170" fill="none" xmlns="http://www.w3.org/2000/svg">
<path d="M16.9167 169.167C12.2646 169.167 8.28353 167.512 4.9735 164.202C1.66347 160.892 0.00563889 156.908 0 152.25V16.9167C0 12.2646 1.65783 8.28353 4.9735 4.9735C8.28917 1.66347 12.2702 0.00563889 16.9167 0H118.417C123.069 0 127.053 1.65783 130.368 4.9735C133.684 8.28917 135.339 12.2702 135.333 16.9167V152.25C135.333 156.902 133.678 160.886 130.368 164.202C127.058 167.517 123.074 169.172 118.417 169.167H16.9167ZM59.2083 16.9167V68.724C59.2083 70.4156 59.8794 71.6505 61.2214 72.4287C62.5635 73.2069 64.007 73.1702 65.5521 72.3188L75.9136 66.1865C77.3233 65.3406 78.7697 64.9177 80.2527 64.9177C81.7357 64.9177 83.1793 65.3406 84.5834 66.1865L94.9448 72.3188C96.4955 73.1646 97.9757 73.2012 99.3854 72.4287C100.795 71.6562 101.5 70.4213 101.5 68.724V16.9167H59.2083Z" fill="#9A203E"/>
</svg>
