<svg width="30" height="30" viewBox="0 0 30 30" fill="none" xmlns="http://www.w3.org/2000/svg">
<path d="M11.2037 20.523L11.2963 26.9874C11.2963 27.7406 10.7716 28.431 9.72222 29.0586C8.73457 29.6862 7.74691 30 6.75926 30C5.33951 30 4.44444 29.2469 4.07407 27.7406C4.01235 27.4059 3.76543 24.3515 3.33333 18.5774C2.90123 12.7615 2.0679 8.20084 0.833333 4.8954C0.277778 3.30544 0 2.36402 0 2.07113C0 0.690376 1.23457 0 3.7037 0C4.75309 0 5.58642 0.271967 6.2037 0.8159C6.82099 1.35983 7.19136 1.92469 7.31481 2.51046C7.5 3.05439 7.65432 3.80753 7.77778 4.76987C7.90123 5.73222 7.99383 6.33891 8.05555 6.58996C9.35185 4.49791 11.2963 2.92887 13.8889 1.88285C16.4815 0.83682 19.321 0.313807 22.4074 0.313807C27.4691 0.313807 30 1.19247 30 2.94979C30 3.82845 29.537 4.53975 28.6111 5.08368C27.7469 5.58577 26.7284 5.83682 25.5556 5.83682C20.3086 5.83682 16.6049 6.96653 14.4444 9.22594C12.284 11.4854 11.2037 15.251 11.2037 20.523Z" fill="#9A203E"/>
</svg>
