<svg width="36" height="28" viewBox="0 0 36 28" fill="none" xmlns="http://www.w3.org/2000/svg">
<path d="M20.0394 0.746122C20.5217 0.26838 21.1756 0 21.8575 0C22.5393 0 23.1933 0.26838 23.6755 0.746122L35.2471 12.2137C35.7292 12.6916 36 13.3397 36 14.0154C36 14.6911 35.7292 15.3392 35.2471 15.8171L23.6755 27.2846C23.1905 27.7488 22.541 28.0057 21.8667 27.9999C21.1925 27.9941 20.5475 27.7261 20.0708 27.2536C19.594 26.7811 19.3236 26.142 19.3177 25.4738C19.3118 24.8056 19.571 24.1619 20.0394 23.6813L27.0004 16.5637H2.57147C1.88947 16.5637 1.23541 16.2952 0.753166 15.8173C0.270922 15.3394 0 14.6912 0 14.0154C0 13.3395 0.270922 12.6913 0.753166 12.2134C1.23541 11.7355 1.88947 11.467 2.57147 11.467H27.0004L20.0394 4.34949C19.5574 3.8716 19.2866 3.22354 19.2866 2.54781C19.2866 1.87208 19.5574 1.22401 20.0394 0.746122Z" fill="#E5E5E5"/>
</svg>
