<svg width="209" height="209" viewBox="0 0 209 209" fill="none" xmlns="http://www.w3.org/2000/svg">
<path d="M182.875 143.688C182.875 160.521 169.229 174.167 152.396 174.167C135.563 174.167 121.917 160.521 121.917 143.688C121.917 126.854 135.563 113.208 152.396 113.208C169.229 113.208 182.875 126.854 182.875 143.688Z" fill="#9A203E"/>
<path fill-rule="evenodd" clip-rule="evenodd" d="M10.8854 87.0834C10.8854 83.4763 13.8096 80.5521 17.4167 80.5521H191.583C195.19 80.5521 198.115 83.4763 198.115 87.0834C198.115 90.6904 195.19 93.6146 191.583 93.6146H17.4167C13.8096 93.6146 10.8854 90.6904 10.8854 87.0834Z" fill="#9A203E"/>
<path opacity="0.5" d="M36.4662 80.5521L40.1785 65.7025C44.9304 46.695 47.3064 37.1913 54.3931 31.6581C61.4798 26.125 71.276 26.125 90.8689 26.125H118.131C137.724 26.125 147.52 26.125 154.607 31.6581C161.694 37.1913 164.069 46.695 168.822 65.7025L172.534 80.5521H36.4662Z" fill="#9A203E"/>
<path d="M87.0833 143.688C87.0833 160.521 73.4374 174.167 56.6042 174.167C39.771 174.167 26.125 160.521 26.125 143.688C26.125 126.854 39.771 113.208 56.6042 113.208C73.4374 113.208 87.0833 126.854 87.0833 143.688Z" fill="#9A203E"/>
<path opacity="0.5" d="M86.0714 151.495C86.7298 149.003 87.0806 146.386 87.0806 143.687C87.0806 141.312 86.8086 138.999 86.2943 136.779L89.8961 134.978C99.0895 130.381 109.911 130.381 119.105 134.978L122.7 136.777C122.186 138.997 121.914 141.31 121.914 143.687C121.914 146.385 122.264 149 122.922 151.491L113.263 146.661C107.746 143.903 101.254 143.903 95.7377 146.661L86.0714 151.495Z" fill="#9A203E"/>
</svg>
