<svg width="189" height="189" viewBox="0 0 189 189" fill="none" xmlns="http://www.w3.org/2000/svg">
<g clip-path="url(#clip0_18_137)">
<path fill-rule="evenodd" clip-rule="evenodd" d="M150.255 84.1049C120.015 66.1499 69.4575 64.26 40.635 73.2375C35.91 74.655 31.185 71.82 29.7675 67.5675C28.35 62.8425 31.185 58.1175 35.4375 56.7C68.985 46.7775 124.268 48.6676 159.233 69.4576C163.485 71.8201 164.902 77.49 162.54 81.7425C160.177 85.05 154.508 86.4674 150.255 84.1049ZM149.31 110.565C146.947 113.872 142.695 115.29 139.387 112.927C113.872 97.335 75.1275 92.6101 45.36 102.06C41.58 103.005 37.3275 101.115 36.3825 97.335C35.4375 93.555 37.3275 89.3025 41.1075 88.3575C75.6 77.9625 118.125 83.16 147.42 101.115C150.255 102.532 151.672 107.257 149.31 110.565ZM137.97 136.552C136.08 139.387 132.773 140.333 129.938 138.443C107.73 124.74 79.8525 121.905 46.7775 129.465C43.47 130.41 40.635 128.047 39.69 125.212C38.745 121.905 41.1075 119.07 43.9425 118.125C79.8525 110.092 111.038 113.4 135.608 128.52C138.915 129.938 139.387 133.717 137.97 136.552ZM94.5 0C42.525 0 0 42.525 0 94.5C0 146.475 42.525 189 94.5 189C146.475 189 189 146.475 189 94.5C189 42.525 146.947 0 94.5 0Z" fill="#9A203E"/>
</g>
<defs>
<clipPath id="clip0_18_137">
<rect width="189" height="189" fill="white"/>
</clipPath>
</defs>
</svg>
